subject20_rfs_trial11_ground_reaction
version=1
nRows=18
nColumns=19
inDegrees=no
endheader
time	ground_force_r_vx	ground_force_r_vy	ground_force_r_vz	ground_force_r_px	ground_force_r_py	ground_force_r_pz	ground_torque_r_x	ground_torque_r_y	ground_torque_r_z	ground_force_l_vx	ground_force_l_vy	ground_force_l_vz	ground_force_l_px	ground_force_l_py	ground_force_l_pz	ground_torque_l_x	ground_torque_l_y	ground_torque_l_z
      0.36000000	    -63.05276600	   1216.41526300	    -20.21915300	      0.51651500	      0.00000000	     -0.17863600	      0.00000000	      4.06128200	      0.00000000	      0.00000000	      0.00000000	      0.00000000	  17049.77389200	      0.00000000	  12860.71124500	      0.00000000	      0.00000000	      0.00000000
      0.36500000	    -52.16300400	   1229.49194700	    -15.59818300	      0.51982200	      0.00000000	     -0.17902700	      0.00000000	      4.46384400	      0.00000000	      0.00000000	      0.00000000	      0.00000000	  16137.07397200	      0.00000000	  12169.35000800	      0.00000000	      0.00000000	      0.00000000
      0.37000000	    -42.21488100	   1235.48145700	    -11.52943800	      0.52307300	      0.00000000	     -0.17933400	      0.00000000	      4.71342100	      0.00000000	      0.00000000	      0.00000000	      0.00000000	  15257.54299600	      0.00000000	  11503.22121000	      0.00000000	      0.00000000	      0.00000000
      0.37500000	    -32.06471800	   1237.80402900	     -9.87649700	      0.52617400	      0.00000000	     -0.17940800	      0.00000000	      4.63132600	      0.00000000	      0.00000000	      0.00000000	      0.00000000	  14410.56706000	      0.00000000	  10861.85577200	      0.00000000	      0.00000000	      0.00000000
      0.38000000	    -19.37996900	   1236.63062500	    -11.81073900	      0.52897900	      0.00000000	     -0.17935800	      0.00000000	      4.33690600	      0.00000000	      0.00000000	      0.00000000	      0.00000000	  13595.53226400	      0.00000000	  10244.78461900	      0.00000000	      0.00000000	      0.00000000
      0.38500000	     -5.16370400	   1229.93108400	    -16.34197800	      0.53180100	      0.00000000	     -0.17906600	      0.00000000	      3.83214000	      0.00000000	      0.00000000	      0.00000000	      0.00000000	  12811.82470400	      0.00000000	   9651.53867200	      0.00000000	      0.00000000	      0.00000000
      0.39000000	      7.14396500	   1219.48113300	    -20.36479500	      0.53465500	      0.00000000	     -0.17880400	      0.00000000	      3.31296700	      0.00000000	      0.00000000	      0.00000000	      0.00000000	  12058.83047800	      0.00000000	   9081.64885400	      0.00000000	      0.00000000	      0.00000000
      0.39500000	     17.66432600	   1203.78172900	    -22.11733600	      0.53762700	      0.00000000	     -0.17860300	      0.00000000	      2.86572400	      0.00000000	      0.00000000	      0.00000000	      0.00000000	  11335.93568500	      0.00000000	   8534.64608800	      0.00000000	      0.00000000	      0.00000000
      0.40000000	     29.01510300	   1182.42912500	    -21.68203500	      0.54053100	      0.00000000	     -0.17856000	      0.00000000	      2.55840300	      0.00000000	      0.00000000	      0.00000000	      0.00000000	  10642.52642100	      0.00000000	   8010.06129700	      0.00000000	      0.00000000	      0.00000000
      0.40500000	     41.21915700	   1156.53978700	    -20.13583300	      0.54331400	      0.00000000	     -0.17859300	      0.00000000	      2.24249500	      0.00000000	      0.00000000	      0.00000000	      0.00000000	   9977.98878500	      0.00000000	   7507.42540400	      0.00000000	      0.00000000	      0.00000000
      0.41000000	     53.26726900	   1127.29161500	    -17.71954800	      0.54577700	      0.00000000	     -0.17865100	      0.00000000	      2.03696700	      0.00000000	      0.00000000	      0.00000000	      0.00000000	   9341.70887400	      0.00000000	   7026.26933000	      0.00000000	      0.00000000	      0.00000000
      0.41500000	     65.15492700	   1093.83244400	    -15.01236700	      0.54809700	      0.00000000	     -0.17876700	      0.00000000	      1.82358600	      0.00000000	      0.00000000	      0.00000000	      0.00000000	   8733.07278700	      0.00000000	   6566.12399900	      0.00000000	      0.00000000	      0.00000000
      0.42000000	     76.69408500	   1054.98482900	    -12.80954400	      0.55040800	      0.00000000	     -0.17886900	      0.00000000	      1.46730600	      0.00000000	      0.00000000	      0.00000000	      0.00000000	   8151.46662000	      0.00000000	   6126.52033400	      0.00000000	      0.00000000	      0.00000000
      0.42500000	     85.79587400	   1011.73157100	    -11.01323600	      0.55266600	      0.00000000	     -0.17895300	      0.00000000	      1.08164000	      0.00000000	      0.00000000	      0.00000000	      0.00000000	   7596.27647200	      0.00000000	   5706.98925700	      0.00000000	      0.00000000	      0.00000000
      0.43000000	     93.25554500	    965.25158000	     -9.95652700	      0.55476100	      0.00000000	     -0.17901500	      0.00000000	      0.62496200	      0.00000000	      0.00000000	      0.00000000	      0.00000000	   7066.88844100	      0.00000000	   5307.06169000	      0.00000000	      0.00000000	      0.00000000
      0.43500000	    100.39708500	    915.65058600	     -8.61226500	      0.55652800	      0.00000000	     -0.17906300	      0.00000000	      0.13597700	      0.00000000	      0.00000000	      0.00000000	      0.00000000	   6562.68862400	      0.00000000	   4926.26855800	      0.00000000	      0.00000000	      0.00000000
      0.44000000	    108.45706000	    861.06375900	     -6.57974000	      0.55800900	      0.00000000	     -0.17917900	      0.00000000	     -0.26094500	      0.00000000	      0.00000000	      0.00000000	      0.00000000	   6083.06311900	      0.00000000	   4564.14078200	      0.00000000	      0.00000000	      0.00000000
      0.44500000	    113.98706800	    803.24878000	     -4.81858600	      0.55973200	      0.00000000	     -0.17928100	      0.00000000	     -0.77840800	      0.00000000	      0.00000000	      0.00000000	      0.00000000	   5627.39802300	      0.00000000	   4220.20928500	      0.00000000	      0.00000000	      0.00000000
